<svg xmlns="http://www.w3.org/2000/svg" width="68.989" height="54.706"><path data-name="Caminho 296" d="M40.325 54.706l-1.944-3.207Q54.9 42.754 54.9 34.976q0-3.3-6.219-6.51-5.539-2.915-7.725-5.83a12.3 12.3 0 01-2.186-7.579 14.5 14.5 0 014.421-10.64A14.393 14.393 0 0153.734-.004a13.315 13.315 0 0111.029 5.441q4.227 5.441 4.227 14.187 0 14.381-10.883 24.681a43.133 43.133 0 01-7.239 5.49 83.311 83.311 0 01-10.543 4.911zm-38.381 0L.001 51.499q16.518-8.842 16.518-16.523a4.548 4.548 0 00-1.36-3.255 20.18 20.18 0 00-4.858-3.255q-5.344-2.721-7.628-5.781A12.4 12.4 0 01.39 15.057 14.539 14.539 0 014.761 4.376 14.312 14.312 0 0115.255.003a13.409 13.409 0 0111.126 5.441q4.227 5.441 4.227 14.187a32.563 32.563 0 01-2.769 13.215 35.215 35.215 0 01-8.211 11.466q-6.316 5.827-17.685 10.394z" opacity=".2"/></svg>